<svg xmlns="http://www.w3.org/2000/svg" viewBox="-10 -20 1040 420" role="img" aria-label="2 · Orquestração de agentes" style="font-family:'Segoe UI',Arial,sans-serif"><title>Fluxo 5</title><defs><marker id="arrow-4" viewBox="0 0 10 10" refX="9" refY="5" markerWidth="6" markerHeight="6" orient="auto-start-reverse"><path d="M 0 0 L 10 5 L 0 10 z" fill="#7a879f"></path></marker></defs><path data-edge="S-D" d="M 194 185 L 242 185" fill="none" stroke="#7a879f" stroke-width="1.6" stroke-linejoin="round" marker-end="url(#arrow-4)"></path><path data-edge="D-P" d="M 345 153 L 345 55 L 496 55" fill="none" stroke="#7a879f" stroke-width="1.6" stroke-linejoin="round" marker-end="url(#arrow-4)"></path><path data-edge="D-C" d="M 448 185 L 496 185" fill="none" stroke="#7a879f" stroke-width="1.6" stroke-linejoin="round" marker-end="url(#arrow-4)"></path><path data-edge="D-T" d="M 345 217 L 345 260 L 470 260 L 470 315 L 496 315" fill="none" stroke="#7a879f" stroke-width="1.6" stroke-linejoin="round" marker-end="url(#arrow-4)"></path><path data-edge="D-R" d="M 345 153 L 345 10 L 960 10 L 960 315 L 934 315" fill="none" stroke="#7a879f" stroke-width="1.6" stroke-linejoin="round" marker-end="url(#arrow-4)"></path><path data-edge="P-V" d="M 684 55 L 840 55 L 840 144" fill="none" stroke="#7a879f" stroke-width="1.6" stroke-linejoin="round" marker-end="url(#arrow-4)"></path><path data-edge="C-V" d="M 684 185 L 746 185" fill="none" stroke="#7a879f" stroke-width="1.6" stroke-linejoin="round" marker-end="url(#arrow-4)"></path><path data-edge="T-V" d="M 684 315 L 720 315 L 720 185 L 746 185" fill="none" stroke="#7a879f" stroke-width="1.6" stroke-linejoin="round" marker-end="url(#arrow-4)"></path><path data-edge="R-V" d="M 840 283 L 840 226" fill="none" stroke="#7a879f" stroke-width="1.6" stroke-linejoin="round" marker-end="url(#arrow-4)"></path><path data-edge="V-S" d="M 934 185 L 994 185 L 994 390 L 0 390 L 0 185 L 6 185" fill="none" stroke="#7a879f" stroke-width="1.6" stroke-linejoin="round" marker-end="url(#arrow-4)"></path><path data-edge="S-F" d="M 100 226 L 100 293" fill="none" stroke="#7a879f" stroke-width="1.6" stroke-linejoin="round" marker-end="url(#arrow-4)"></path><path data-edge="F-O" d="M 203 325 L 251 325" fill="none" stroke="#7a879f" stroke-width="1.6" stroke-linejoin="round" marker-end="url(#arrow-4)"></path><g data-node="S"><rect x="6" y="144" width="188" height="82" rx="7" fill="#EDF0FB" stroke="#AFB9D9" stroke-width="1.2"></rect><text x="100" y="169.5" text-anchor="middle" font-size="17" font-weight="600" fill="#252E51">Estado do caso</text><text x="100" y="190.5" text-anchor="middle" font-size="17" font-weight="400" fill="#252E51">critério ainda</text><text x="100" y="211.5" text-anchor="middle" font-size="17" font-weight="400" fill="#252E51">pendente</text></g><g data-node="D"><polygon points="257,153 433,153 448,185 433,217 257,217 242,185" fill="#F8F2DC" stroke="#D8C88C" stroke-width="1.2"></polygon><text x="345" y="180" text-anchor="middle" font-size="17" font-weight="600" fill="#615222">O que falta</text><text x="345" y="201" text-anchor="middle" font-size="17" font-weight="400" fill="#615222">para avançar?</text></g><g data-node="P"><rect x="496" y="23" width="188" height="64" rx="7" fill="#EAF3FA" stroke="#9CBED5" stroke-width="1.2"></rect><text x="590" y="50" text-anchor="middle" font-size="17" font-weight="600" fill="#193D5A">Pesquisar</text><text x="590" y="71" text-anchor="middle" font-size="17" font-weight="400" fill="#193D5A">hipótese e evidência</text></g><g data-node="C"><rect x="496" y="153" width="188" height="64" rx="7" fill="#EAF3FA" stroke="#9CBED5" stroke-width="1.2"></rect><text x="590" y="180" text-anchor="middle" font-size="17" font-weight="600" fill="#193D5A">Implementar</text><text x="590" y="201" text-anchor="middle" font-size="17" font-weight="400" fill="#193D5A">alteração delimitada</text></g><g data-node="T"><rect x="496" y="283" width="188" height="64" rx="7" fill="#EAF3FA" stroke="#9CBED5" stroke-width="1.2"></rect><text x="590" y="310" text-anchor="middle" font-size="17" font-weight="600" fill="#193D5A">Testar</text><text x="590" y="331" text-anchor="middle" font-size="17" font-weight="400" fill="#193D5A">resultado reproduzível</text></g><g data-node="R"><rect x="746" y="283" width="188" height="64" rx="7" fill="#EAF3FA" stroke="#9CBED5" stroke-width="1.2"></rect><text x="840" y="310" text-anchor="middle" font-size="17" font-weight="600" fill="#193D5A">Revisar</text><text x="840" y="331" text-anchor="middle" font-size="17" font-weight="400" fill="#193D5A">achados e decisão</text></g><g data-node="V"><rect x="746" y="144" width="188" height="82" rx="7" fill="#E6F5ED" stroke="#9DC7B0" stroke-width="1.2"></rect><text x="840" y="169.5" text-anchor="middle" font-size="17" font-weight="600" fill="#22513C">Validar entrega</text><text x="840" y="190.5" text-anchor="middle" font-size="17" font-weight="400" fill="#22513C">escopo · fonte ·</text><text x="840" y="211.5" text-anchor="middle" font-size="17" font-weight="400" fill="#22513C">artefato</text></g><g data-node="F"><polygon points="12,293 188,293 203,325 188,357 12,357 -3,325" fill="#F8F2DC" stroke="#D8C88C" stroke-width="1.2"></polygon><text x="100" y="320" text-anchor="middle" font-size="17" font-weight="600" fill="#615222">Critérios</text><text x="100" y="341" text-anchor="middle" font-size="17" font-weight="400" fill="#615222">cumpridos?</text></g><g data-node="O"><rect x="251" y="293" width="188" height="64" rx="7" fill="#E6F5ED" stroke="#9DC7B0" stroke-width="1.2"></rect><text x="345" y="320" text-anchor="middle" font-size="17" font-weight="600" fill="#22513C">Concluir</text><text x="345" y="341" text-anchor="middle" font-size="17" font-weight="400" fill="#22513C">com evidência</text></g><rect x="404" y="31" width="52" height="20" fill="#fff" rx="3"></rect><text x="430" y="45" text-anchor="middle" font-size="15" fill="#5a657e">causa</text><rect x="432" y="161" width="76" height="20" fill="#fff" rx="3"></rect><text x="470" y="175" text-anchor="middle" font-size="15" fill="#5a657e">correção</text><rect x="350" y="236" width="100" height="20" fill="#fff" rx="3"></rect><text x="400" y="250" text-anchor="middle" font-size="15" fill="#5a657e">verificação</text><rect x="608" y="-14" width="84" height="20" fill="#fff" rx="3"></rect><text x="650" y="0" text-anchor="middle" font-size="15" fill="#5a657e">avaliação</text><rect x="209" y="302" width="36" height="20" fill="#fff" rx="3"></rect><text x="227" y="316" text-anchor="middle" font-size="15" fill="#5a657e">sim</text></svg>